<svg width="25" height="24" viewBox="0 0 25 24" fill="none" xmlns="http://www.w3.org/2000/svg">
<g clip-path="url(#clip0_1562_617)">
<path d="M12.043 2C6.51997 2 2.04297 6.477 2.04297 12C2.04297 16.991 5.69997 21.128 10.481 21.879V14.89H7.94097V12H10.481V9.797C10.481 7.291 11.973 5.907 14.258 5.907C15.352 5.907 16.496 6.102 16.496 6.102V8.562H15.236C13.993 8.562 13.606 9.333 13.606 10.124V12H16.379L15.936 14.89H13.606V21.879C18.386 21.129 22.043 16.99 22.043 12C22.043 6.477 17.566 2 12.043 2Z" fill="white"/>
</g>
<defs>
<clipPath id="clip0_1562_617">
<rect width="24" height="24" fill="white" transform="translate(0.0429688)"/>
</clipPath>
</defs>
</svg>