<svg width="25" height="24" viewBox="0 0 25 24" fill="none" xmlns="http://www.w3.org/2000/svg">
<g clip-path="url(#clip0_1562_621)">
<path d="M12.043 2C14.76 2 15.099 2.01 16.165 2.06C17.23 2.11 17.955 2.277 18.593 2.525C19.253 2.779 19.809 3.123 20.365 3.678C20.8735 4.1779 21.2669 4.78259 21.518 5.45C21.765 6.087 21.933 6.813 21.983 7.878C22.03 8.944 22.043 9.283 22.043 12C22.043 14.717 22.033 15.056 21.983 16.122C21.933 17.187 21.765 17.912 21.518 18.55C21.2676 19.2178 20.8741 19.8226 20.365 20.322C19.8649 20.8303 19.2603 21.2238 18.593 21.475C17.956 21.722 17.23 21.89 16.165 21.94C15.099 21.987 14.76 22 12.043 22C9.32597 22 8.98697 21.99 7.92097 21.94C6.85597 21.89 6.13097 21.722 5.49297 21.475C4.82529 21.2245 4.2205 20.8309 3.72097 20.322C3.21238 19.8222 2.8189 19.2175 2.56797 18.55C2.31997 17.913 2.15297 17.187 2.10297 16.122C2.05597 15.056 2.04297 14.717 2.04297 12C2.04297 9.283 2.05297 8.944 2.10297 7.878C2.15297 6.812 2.31997 6.088 2.56797 5.45C2.8182 4.78218 3.21177 4.17732 3.72097 3.678C4.22064 3.16923 4.8254 2.77573 5.49297 2.525C6.13097 2.277 6.85497 2.11 7.92097 2.06C8.98697 2.013 9.32597 2 12.043 2ZM12.043 7C10.7169 7 9.44512 7.52678 8.50743 8.46447C7.56975 9.40215 7.04297 10.6739 7.04297 12C7.04297 13.3261 7.56975 14.5979 8.50743 15.5355C9.44512 16.4732 10.7169 17 12.043 17C13.3691 17 14.6408 16.4732 15.5785 15.5355C16.5162 14.5979 17.043 13.3261 17.043 12C17.043 10.6739 16.5162 9.40215 15.5785 8.46447C14.6408 7.52678 13.3691 7 12.043 7ZM18.543 6.75C18.543 6.41848 18.4113 6.10054 18.1769 5.86612C17.9424 5.6317 17.6245 5.5 17.293 5.5C16.9614 5.5 16.6435 5.6317 16.4091 5.86612C16.1747 6.10054 16.043 6.41848 16.043 6.75C16.043 7.08152 16.1747 7.39946 16.4091 7.63388C16.6435 7.8683 16.9614 8 17.293 8C17.6245 8 17.9424 7.8683 18.1769 7.63388C18.4113 7.39946 18.543 7.08152 18.543 6.75ZM12.043 9C12.8386 9 13.6017 9.31607 14.1643 9.87868C14.7269 10.4413 15.043 11.2044 15.043 12C15.043 12.7956 14.7269 13.5587 14.1643 14.1213C13.6017 14.6839 12.8386 15 12.043 15C11.2473 15 10.4843 14.6839 9.92165 14.1213C9.35904 13.5587 9.04297 12.7956 9.04297 12C9.04297 11.2044 9.35904 10.4413 9.92165 9.87868C10.4843 9.31607 11.2473 9 12.043 9Z" fill="white"/>
</g>
<defs>
<clipPath id="clip0_1562_621">
<rect width="24" height="24" fill="white" transform="translate(0.0429688)"/>
</clipPath>
</defs>
</svg>
