<svg width="1235" height="650" viewBox="0 0 1235 650" fill="none" xmlns="http://www.w3.org/2000/svg">
<g clip-path="url(#clip0_235_1434)">
<path d="M1235 0H0V650H1235V0Z" fill="#B22234"/>
<path d="M0 75H1235ZM1235 175H0ZM0 275H1235ZM1235 375H0ZM0 475H1235ZM1235 575H0Z" fill="black"/>
<path d="M0 75H1235M1235 175H0M0 275H1235M1235 375H0M0 475H1235M1235 575H0" stroke="white" stroke-width="50"/>
<path d="M494 0H0V350H494V0Z" fill="#3C3B6E"/>
<path d="M41.1666 15L52.9223 51.1803L22.1455 28.8197H60.1878L29.4109 51.1803L41.1666 15Z" fill="white"/>
<path d="M41.1666 85L52.9223 121.18L22.1455 98.8197H60.1878L29.4109 121.18L41.1666 85Z" fill="white"/>
<path d="M41.1666 155L52.9223 191.18L22.1455 168.82H60.1878L29.4109 191.18L41.1666 155Z" fill="white"/>
<path d="M41.1666 225L52.9223 261.18L22.1455 238.82H60.1878L29.4109 261.18L41.1666 225Z" fill="white"/>
<path d="M41.1666 295L52.9223 331.18L22.1455 308.82H60.1878L29.4109 331.18L41.1666 295Z" fill="white"/>
<path d="M82.3336 50L94.0893 86.1803L63.3125 63.8197H101.355L70.5779 86.1803L82.3336 50Z" fill="white"/>
<path d="M82.3336 120L94.0893 156.18L63.3125 133.82H101.355L70.5779 156.18L82.3336 120Z" fill="white"/>
<path d="M82.3336 190L94.0893 226.18L63.3125 203.82H101.355L70.5779 226.18L82.3336 190Z" fill="white"/>
<path d="M82.3336 260L94.0893 296.18L63.3125 273.82H101.355L70.5779 296.18L82.3336 260Z" fill="white"/>
<path d="M123.5 15L135.255 51.1803L104.479 28.8197H142.521L111.744 51.1803L123.5 15Z" fill="white"/>
<path d="M123.5 85L135.255 121.18L104.479 98.8197H142.521L111.744 121.18L123.5 85Z" fill="white"/>
<path d="M123.5 155L135.255 191.18L104.479 168.82H142.521L111.744 191.18L123.5 155Z" fill="white"/>
<path d="M123.5 225L135.255 261.18L104.479 238.82H142.521L111.744 261.18L123.5 225Z" fill="white"/>
<path d="M123.5 295L135.255 331.18L104.479 308.82H142.521L111.744 331.18L123.5 295Z" fill="white"/>
<path d="M164.667 50L176.422 86.1803L145.646 63.8197H183.688L152.911 86.1803L164.667 50Z" fill="white"/>
<path d="M164.667 120L176.422 156.18L145.646 133.82H183.688L152.911 156.18L164.667 120Z" fill="white"/>
<path d="M164.667 190L176.422 226.18L145.646 203.82H183.688L152.911 226.18L164.667 190Z" fill="white"/>
<path d="M164.667 260L176.422 296.18L145.646 273.82H183.688L152.911 296.18L164.667 260Z" fill="white"/>
<path d="M205.834 15L217.589 51.1803L186.812 28.8197H224.855L194.078 51.1803L205.834 15Z" fill="white"/>
<path d="M205.834 85L217.589 121.18L186.812 98.8197H224.855L194.078 121.18L205.834 85Z" fill="white"/>
<path d="M205.834 155L217.589 191.18L186.812 168.82H224.855L194.078 191.18L205.834 155Z" fill="white"/>
<path d="M205.834 225L217.589 261.18L186.812 238.82H224.855L194.078 261.18L205.834 225Z" fill="white"/>
<path d="M205.834 295L217.589 331.18L186.812 308.82H224.855L194.078 331.18L205.834 295Z" fill="white"/>
<path d="M247.001 50L258.756 86.1803L227.979 63.8197H266.022L235.245 86.1803L247.001 50Z" fill="white"/>
<path d="M247.001 120L258.756 156.18L227.979 133.82H266.022L235.245 156.18L247.001 120Z" fill="white"/>
<path d="M247.001 190L258.756 226.18L227.979 203.82H266.022L235.245 226.18L247.001 190Z" fill="white"/>
<path d="M247.001 260L258.756 296.18L227.979 273.82H266.022L235.245 296.18L247.001 260Z" fill="white"/>
<path d="M288.167 15L299.922 51.1803L269.146 28.8197H307.188L276.411 51.1803L288.167 15Z" fill="white"/>
<path d="M288.167 85L299.922 121.18L269.146 98.8197H307.188L276.411 121.18L288.167 85Z" fill="white"/>
<path d="M288.167 155L299.922 191.18L269.146 168.82H307.188L276.411 191.18L288.167 155Z" fill="white"/>
<path d="M288.167 225L299.922 261.18L269.146 238.82H307.188L276.411 261.18L288.167 225Z" fill="white"/>
<path d="M288.167 295L299.922 331.18L269.146 308.82H307.188L276.411 331.18L288.167 295Z" fill="white"/>
<path d="M329.334 50L341.089 86.1803L310.312 63.8197H348.355L317.578 86.1803L329.334 50Z" fill="white"/>
<path d="M329.334 120L341.089 156.18L310.312 133.82H348.355L317.578 156.18L329.334 120Z" fill="white"/>
<path d="M329.334 190L341.089 226.18L310.312 203.82H348.355L317.578 226.18L329.334 190Z" fill="white"/>
<path d="M329.334 260L341.089 296.18L310.312 273.82H348.355L317.578 296.18L329.334 260Z" fill="white"/>
<path d="M370.5 15L382.255 51.1803L351.479 28.8197H389.521L358.744 51.1803L370.5 15Z" fill="white"/>
<path d="M370.5 85L382.255 121.18L351.479 98.8197H389.521L358.744 121.18L370.5 85Z" fill="white"/>
<path d="M370.5 155L382.255 191.18L351.479 168.82H389.521L358.744 191.18L370.5 155Z" fill="white"/>
<path d="M370.5 225L382.255 261.18L351.479 238.82H389.521L358.744 261.18L370.5 225Z" fill="white"/>
<path d="M370.5 295L382.255 331.18L351.479 308.82H389.521L358.744 331.18L370.5 295Z" fill="white"/>
<path d="M411.667 50L423.422 86.1803L392.646 63.8197H430.688L399.911 86.1803L411.667 50Z" fill="white"/>
<path d="M411.667 120L423.422 156.18L392.646 133.82H430.688L399.911 156.18L411.667 120Z" fill="white"/>
<path d="M411.667 190L423.422 226.18L392.646 203.82H430.688L399.911 226.18L411.667 190Z" fill="white"/>
<path d="M411.667 260L423.422 296.18L392.646 273.82H430.688L399.911 296.18L411.667 260Z" fill="white"/>
<path d="M452.834 15L464.589 51.1803L433.812 28.8197H471.855L441.078 51.1803L452.834 15Z" fill="white"/>
<path d="M452.834 85L464.589 121.18L433.812 98.8197H471.855L441.078 121.18L452.834 85Z" fill="white"/>
<path d="M452.834 155L464.589 191.18L433.812 168.82H471.855L441.078 191.18L452.834 155Z" fill="white"/>
<path d="M452.834 225L464.589 261.18L433.812 238.82H471.855L441.078 261.18L452.834 225Z" fill="white"/>
<path d="M452.834 295L464.589 331.18L433.812 308.82H471.855L441.078 331.18L452.834 295Z" fill="white"/>
</g>
<defs>
<clipPath id="clip0_235_1434">
<rect width="1235" height="650" fill="white"/>
</clipPath>
</defs>
</svg>
